<!-- Do not edit this file directly. This file is generated automatically with 'rake icon:fetch' -->
<svg xmlns="http://www.w3.org/2000/svg"><symbol viewBox="0 0 512 512" id="icon">
  <path fill="currentColor" d="M16 96c0-26.51 21.49-48 48-48s48 21.49 48 48c0 26.5-21.49 48-48 48s-48-21.5-48-48zm464-32c17.7 0 32 14.33 32 32c0 17.7-14.3 32-32 32H192c-17.7 0-32-14.3-32-32c0-17.67 14.3-32 32-32h288zm0 160c17.7 0 32 14.3 32 32s-14.3 32-32 32H192c-17.7 0-32-14.3-32-32s14.3-32 32-32h288zm0 160c17.7 0 32 14.3 32 32s-14.3 32-32 32H192c-17.7 0-32-14.3-32-32s14.3-32 32-32h288zM16 416c0-26.5 21.49-48 48-48s48 21.5 48 48s-21.49 48-48 48s-48-21.5-48-48zm96-160c0 26.5-21.49 48-48 48s-48-21.5-48-48s21.49-48 48-48s48 21.5 48 48z"/>
</symbol></svg>